<svg xmlns="http://www.w3.org/2000/svg" viewBox="0 0 64 64" fill="none">
  <!-- 장바구니 본체 -->
  <path d="M16 22 L20 46 C20 48 21 50 23 50 L45 50 C47 50 48 48 48 46 L52 22 Z" fill="#FF6B6B"/>
  
  <!-- 장바구니 윗부분 -->
  <rect x="14" y="20" width="40" height="4" rx="2" fill="#FF5252"/>
  
  <!-- 손잡이 왼쪽 -->
  <path d="M 20 22 Q 22 12 28 12" stroke="#FF5252" stroke-width="3" fill="none" stroke-linecap="round"/>
  
  <!-- 손잡이 오른쪽 -->
  <path d="M 44 22 Q 42 12 36 12" stroke="#FF5252" stroke-width="3" fill="none" stroke-linecap="round"/>
  
  <!-- 바퀴 왼쪽 -->
  <circle cx="24" cy="54" r="4" fill="#424242"/>
  <circle cx="24" cy="54" r="2" fill="#757575"/>
  
  <!-- 바퀴 오른쪽 -->
  <circle cx="44" cy="54" r="4" fill="#424242"/>
  <circle cx="44" cy="54" r="2" fill="#757575"/>
  
  <!-- 장바구니 줄무늬 -->
  <line x1="28" y1="26" x2="26" y2="44" stroke="#FF8A80" stroke-width="2" stroke-linecap="round"/>
  <line x1="34" y1="26" x2="32" y2="44" stroke="#FF8A80" stroke-width="2" stroke-linecap="round"/>
  <line x1="40" y1="26" x2="38" y2="44" stroke="#FF8A80" stroke-width="2" stroke-linecap="round"/>
  
  <!-- 하이라이트 -->
  <ellipse cx="23" cy="32" rx="3" ry="6" fill="white" opacity="0.4"/>
</svg>
